<mxfile host="app.diagrams.net" modified="2020-08-31T07:42:24.495Z" agent="5.0 (Macintosh; Intel Mac OS X 10_15_6) AppleWebKit/537.36 (KHTML, like Gecko) Chrome/84.0.4147.135 Safari/537.36" etag="KT-mZuxO2B-roXQgTNHK" version="13.6.5" type="github">
  <diagram id="6kw3THxmcXdVIYSwkLSi" name="第 1 页">
    <mxGraphModel dx="1186" dy="764" grid="1" gridSize="10" guides="1" tooltips="1" connect="1" arrows="1" fold="1" page="1" pageScale="1" pageWidth="827" pageHeight="1169" math="0" shadow="0">
      <root>
        <mxCell id="0" />
        <mxCell id="1" parent="0" />
        <mxCell id="_mBccyXIj1Jl6ngUOovF-2" value="java反射" style="ellipse;whiteSpace=wrap;html=1;" vertex="1" parent="1">
          <mxGeometry x="294" y="360" width="120" height="80" as="geometry" />
        </mxCell>
        <mxCell id="_mBccyXIj1Jl6ngUOovF-3" value="" style="endArrow=classic;html=1;exitX=0.783;exitY=0.1;exitDx=0;exitDy=0;exitPerimeter=0;" edge="1" parent="1" source="_mBccyXIj1Jl6ngUOovF-2">
          <mxGeometry width="50" height="50" relative="1" as="geometry">
            <mxPoint x="390" y="420" as="sourcePoint" />
            <mxPoint x="510" y="260" as="targetPoint" />
          </mxGeometry>
        </mxCell>
        <mxCell id="_mBccyXIj1Jl6ngUOovF-5" value="&lt;br&gt;通过一种方式，映射对象的各个组成部分成新的java对象并进行使用" style="rounded=1;whiteSpace=wrap;html=1;" vertex="1" parent="1">
          <mxGeometry x="510" y="230" width="120" height="60" as="geometry" />
        </mxCell>
        <mxCell id="_mBccyXIj1Jl6ngUOovF-6" value="&lt;span&gt;是什么？&lt;/span&gt;" style="text;html=1;align=center;verticalAlign=middle;resizable=0;points=[];autosize=1;" vertex="1" parent="1">
          <mxGeometry x="410" y="300" width="60" height="20" as="geometry" />
        </mxCell>
        <mxCell id="_mBccyXIj1Jl6ngUOovF-7" value="类、方法、成员变量、构造器" style="rounded=0;whiteSpace=wrap;html=1;" vertex="1" parent="1">
          <mxGeometry x="860" y="230" width="120" height="60" as="geometry" />
        </mxCell>
        <mxCell id="_mBccyXIj1Jl6ngUOovF-9" value="" style="endArrow=classic;html=1;exitX=1;exitY=0.5;exitDx=0;exitDy=0;entryX=0;entryY=0.5;entryDx=0;entryDy=0;" edge="1" parent="1" source="_mBccyXIj1Jl6ngUOovF-5" target="_mBccyXIj1Jl6ngUOovF-7">
          <mxGeometry width="50" height="50" relative="1" as="geometry">
            <mxPoint x="530" y="380" as="sourcePoint" />
            <mxPoint x="780" y="250" as="targetPoint" />
          </mxGeometry>
        </mxCell>
        <mxCell id="_mBccyXIj1Jl6ngUOovF-10" value="&lt;span style=&quot;font-size: 12px ; background-color: rgb(248 , 249 , 250)&quot;&gt;java对象有哪些组成部分呢&lt;/span&gt;" style="edgeLabel;html=1;align=center;verticalAlign=middle;resizable=0;points=[];" vertex="1" connectable="0" parent="_mBccyXIj1Jl6ngUOovF-9">
          <mxGeometry x="-0.2615" y="-1" relative="1" as="geometry">
            <mxPoint x="25" y="-1" as="offset" />
          </mxGeometry>
        </mxCell>
        <mxCell id="_mBccyXIj1Jl6ngUOovF-12" value="方式是怎样呢" style="endArrow=classic;html=1;exitX=0.65;exitY=1.05;exitDx=0;exitDy=0;exitPerimeter=0;entryX=0.5;entryY=0;entryDx=0;entryDy=0;" edge="1" parent="1" source="_mBccyXIj1Jl6ngUOovF-5" target="_mBccyXIj1Jl6ngUOovF-13">
          <mxGeometry width="50" height="50" relative="1" as="geometry">
            <mxPoint x="720" y="380" as="sourcePoint" />
            <mxPoint x="690" y="350" as="targetPoint" />
            <Array as="points">
              <mxPoint x="670" y="380" />
            </Array>
          </mxGeometry>
        </mxCell>
        <mxCell id="_mBccyXIj1Jl6ngUOovF-13" value="获得java对象的组成部分" style="rounded=1;whiteSpace=wrap;html=1;" vertex="1" parent="1">
          <mxGeometry x="630" y="400" width="120" height="60" as="geometry" />
        </mxCell>
        <mxCell id="_mBccyXIj1Jl6ngUOovF-14" value="" style="endArrow=none;dashed=1;html=1;dashPattern=1 3;strokeWidth=2;exitX=0.642;exitY=-0.017;exitDx=0;exitDy=0;exitPerimeter=0;entryX=0.083;entryY=1.05;entryDx=0;entryDy=0;entryPerimeter=0;" edge="1" parent="1" source="_mBccyXIj1Jl6ngUOovF-13" target="_mBccyXIj1Jl6ngUOovF-7">
          <mxGeometry width="50" height="50" relative="1" as="geometry">
            <mxPoint x="720" y="380" as="sourcePoint" />
            <mxPoint x="874" y="340" as="targetPoint" />
          </mxGeometry>
        </mxCell>
        <mxCell id="_mBccyXIj1Jl6ngUOovF-15" value="在运行时构造并调用的" style="rounded=0;whiteSpace=wrap;html=1;" vertex="1" parent="1">
          <mxGeometry x="510" y="530" width="120" height="60" as="geometry" />
        </mxCell>
        <mxCell id="_mBccyXIj1Jl6ngUOovF-16" value="什么时候获取" style="endArrow=classic;html=1;exitX=0.383;exitY=1.017;exitDx=0;exitDy=0;exitPerimeter=0;" edge="1" parent="1" source="_mBccyXIj1Jl6ngUOovF-13" target="_mBccyXIj1Jl6ngUOovF-15">
          <mxGeometry width="50" height="50" relative="1" as="geometry">
            <mxPoint x="720" y="490" as="sourcePoint" />
            <mxPoint x="770" y="440" as="targetPoint" />
          </mxGeometry>
        </mxCell>
        <mxCell id="_mBccyXIj1Jl6ngUOovF-19" value="构造和调用同时能进行判断功能" style="rounded=1;whiteSpace=wrap;html=1;" vertex="1" parent="1">
          <mxGeometry x="370" y="640" width="120" height="60" as="geometry" />
        </mxCell>
        <mxCell id="_mBccyXIj1Jl6ngUOovF-20" value="" style="endArrow=classic;html=1;exitX=0.417;exitY=1;exitDx=0;exitDy=0;exitPerimeter=0;entryX=0.5;entryY=0;entryDx=0;entryDy=0;" edge="1" parent="1" source="_mBccyXIj1Jl6ngUOovF-15" target="_mBccyXIj1Jl6ngUOovF-19">
          <mxGeometry width="50" height="50" relative="1" as="geometry">
            <mxPoint x="720" y="640" as="sourcePoint" />
            <mxPoint x="770" y="590" as="targetPoint" />
          </mxGeometry>
        </mxCell>
        <mxCell id="_mBccyXIj1Jl6ngUOovF-21" value="额外功能一" style="edgeLabel;html=1;align=center;verticalAlign=middle;resizable=0;points=[];" vertex="1" connectable="0" parent="_mBccyXIj1Jl6ngUOovF-20">
          <mxGeometry x="0.1483" y="2" relative="1" as="geometry">
            <mxPoint as="offset" />
          </mxGeometry>
        </mxCell>
        <mxCell id="_mBccyXIj1Jl6ngUOovF-22" value="生成动态代理" style="rounded=1;whiteSpace=wrap;html=1;" vertex="1" parent="1">
          <mxGeometry x="570" y="640" width="120" height="60" as="geometry" />
        </mxCell>
        <mxCell id="_mBccyXIj1Jl6ngUOovF-23" value="" style="endArrow=classic;html=1;exitX=0.5;exitY=1;exitDx=0;exitDy=0;" edge="1" parent="1" source="_mBccyXIj1Jl6ngUOovF-15" target="_mBccyXIj1Jl6ngUOovF-22">
          <mxGeometry width="50" height="50" relative="1" as="geometry">
            <mxPoint x="720" y="700" as="sourcePoint" />
            <mxPoint x="770" y="650" as="targetPoint" />
          </mxGeometry>
        </mxCell>
        <mxCell id="_mBccyXIj1Jl6ngUOovF-36" value="额外功能二" style="edgeLabel;html=1;align=center;verticalAlign=middle;resizable=0;points=[];" vertex="1" connectable="0" parent="_mBccyXIj1Jl6ngUOovF-23">
          <mxGeometry x="0.0048" relative="1" as="geometry">
            <mxPoint as="offset" />
          </mxGeometry>
        </mxCell>
        <mxCell id="_mBccyXIj1Jl6ngUOovF-25" value="动态代理" style="rounded=0;whiteSpace=wrap;html=1;" vertex="1" parent="1">
          <mxGeometry x="490" y="770" width="120" height="60" as="geometry" />
        </mxCell>
        <mxCell id="_mBccyXIj1Jl6ngUOovF-26" value="什么是动态代理？" style="endArrow=classic;html=1;exitX=0.4;exitY=1.067;exitDx=0;exitDy=0;exitPerimeter=0;entryX=0.5;entryY=0;entryDx=0;entryDy=0;" edge="1" parent="1" source="_mBccyXIj1Jl6ngUOovF-22" target="_mBccyXIj1Jl6ngUOovF-25">
          <mxGeometry width="50" height="50" relative="1" as="geometry">
            <mxPoint x="770" y="820" as="sourcePoint" />
            <mxPoint x="820" y="770" as="targetPoint" />
          </mxGeometry>
        </mxCell>
        <mxCell id="_mBccyXIj1Jl6ngUOovF-27" value="代理模式，就是帮你去做事，你要吃橘子，通过代理，你无需跑腿去买（前置处理），无需处理橘子垃圾（后置处理），代理不负责吃，负责叫你吃（调用被代理类）" style="rounded=0;whiteSpace=wrap;html=1;" vertex="1" parent="1">
          <mxGeometry x="330" y="900" width="210" height="100" as="geometry" />
        </mxCell>
        <mxCell id="_mBccyXIj1Jl6ngUOovF-28" value="" style="endArrow=classic;html=1;" edge="1" parent="1" source="_mBccyXIj1Jl6ngUOovF-25" target="_mBccyXIj1Jl6ngUOovF-27">
          <mxGeometry width="50" height="50" relative="1" as="geometry">
            <mxPoint x="720" y="850" as="sourcePoint" />
            <mxPoint x="770" y="800" as="targetPoint" />
          </mxGeometry>
        </mxCell>
        <mxCell id="_mBccyXIj1Jl6ngUOovF-31" value="&lt;span style=&quot;font-size: 12px ; background-color: rgb(248 , 249 , 250)&quot;&gt;代理模式是什么？&lt;/span&gt;" style="edgeLabel;html=1;align=center;verticalAlign=middle;resizable=0;points=[];" vertex="1" connectable="0" parent="_mBccyXIj1Jl6ngUOovF-28">
          <mxGeometry x="0.0521" relative="1" as="geometry">
            <mxPoint as="offset" />
          </mxGeometry>
        </mxCell>
        <mxCell id="_mBccyXIj1Jl6ngUOovF-29" value="静态代理就是对一个类进行代理操作，" style="rounded=0;whiteSpace=wrap;html=1;" vertex="1" parent="1">
          <mxGeometry x="580" y="900" width="120" height="60" as="geometry" />
        </mxCell>
        <mxCell id="_mBccyXIj1Jl6ngUOovF-30" value="" style="endArrow=classic;html=1;exitX=0.567;exitY=1.05;exitDx=0;exitDy=0;exitPerimeter=0;entryX=0.5;entryY=0;entryDx=0;entryDy=0;" edge="1" parent="1" source="_mBccyXIj1Jl6ngUOovF-25" target="_mBccyXIj1Jl6ngUOovF-29">
          <mxGeometry width="50" height="50" relative="1" as="geometry">
            <mxPoint x="720" y="810" as="sourcePoint" />
            <mxPoint x="770" y="760" as="targetPoint" />
          </mxGeometry>
        </mxCell>
        <mxCell id="_mBccyXIj1Jl6ngUOovF-32" value="&lt;span style=&quot;font-size: 12px ; background-color: rgb(248 , 249 , 250)&quot;&gt;静态代理&lt;/span&gt;" style="edgeLabel;html=1;align=center;verticalAlign=middle;resizable=0;points=[];" vertex="1" connectable="0" parent="_mBccyXIj1Jl6ngUOovF-30">
          <mxGeometry x="-0.2455" y="2" relative="1" as="geometry">
            <mxPoint as="offset" />
          </mxGeometry>
        </mxCell>
        <mxCell id="_mBccyXIj1Jl6ngUOovF-33" value="利用反射生成相关代理类" style="rounded=0;whiteSpace=wrap;html=1;" vertex="1" parent="1">
          <mxGeometry x="750" y="900" width="120" height="60" as="geometry" />
        </mxCell>
        <mxCell id="_mBccyXIj1Jl6ngUOovF-34" value="" style="endArrow=classic;html=1;exitX=1.008;exitY=0.9;exitDx=0;exitDy=0;exitPerimeter=0;entryX=0.383;entryY=-0.067;entryDx=0;entryDy=0;entryPerimeter=0;" edge="1" parent="1" source="_mBccyXIj1Jl6ngUOovF-25" target="_mBccyXIj1Jl6ngUOovF-33">
          <mxGeometry width="50" height="50" relative="1" as="geometry">
            <mxPoint x="610" y="860" as="sourcePoint" />
            <mxPoint x="660" y="810" as="targetPoint" />
          </mxGeometry>
        </mxCell>
        <mxCell id="_mBccyXIj1Jl6ngUOovF-35" value="动态代理" style="edgeLabel;html=1;align=center;verticalAlign=middle;resizable=0;points=[];" vertex="1" connectable="0" parent="_mBccyXIj1Jl6ngUOovF-34">
          <mxGeometry x="-0.167" relative="1" as="geometry">
            <mxPoint as="offset" />
          </mxGeometry>
        </mxCell>
        <mxCell id="_mBccyXIj1Jl6ngUOovF-37" value="反射基于组成部分：类，方法，成员变量和构造器" style="rounded=1;whiteSpace=wrap;html=1;" vertex="1" parent="1">
          <mxGeometry x="820" y="525" width="120" height="55" as="geometry" />
        </mxCell>
        <mxCell id="_mBccyXIj1Jl6ngUOovF-38" value="" style="endArrow=classic;html=1;exitX=1;exitY=1;exitDx=0;exitDy=0;entryX=0.192;entryY=-0.033;entryDx=0;entryDy=0;entryPerimeter=0;" edge="1" parent="1" source="_mBccyXIj1Jl6ngUOovF-13" target="_mBccyXIj1Jl6ngUOovF-37">
          <mxGeometry width="50" height="50" relative="1" as="geometry">
            <mxPoint x="880" y="590" as="sourcePoint" />
            <mxPoint x="930" y="540" as="targetPoint" />
          </mxGeometry>
        </mxCell>
        <mxCell id="_mBccyXIj1Jl6ngUOovF-39" value="构建反射" style="edgeLabel;html=1;align=center;verticalAlign=middle;resizable=0;points=[];" vertex="1" connectable="0" parent="_mBccyXIj1Jl6ngUOovF-38">
          <mxGeometry x="-0.1957" y="3" relative="1" as="geometry">
            <mxPoint as="offset" />
          </mxGeometry>
        </mxCell>
        <mxCell id="_mBccyXIj1Jl6ngUOovF-40" value="" style="endArrow=none;dashed=1;html=1;entryX=0.383;entryY=1.05;entryDx=0;entryDy=0;entryPerimeter=0;exitX=0.358;exitY=-0.05;exitDx=0;exitDy=0;exitPerimeter=0;" edge="1" parent="1" source="_mBccyXIj1Jl6ngUOovF-37" target="_mBccyXIj1Jl6ngUOovF-7">
          <mxGeometry width="50" height="50" relative="1" as="geometry">
            <mxPoint x="895" y="380" as="sourcePoint" />
            <mxPoint x="945" y="330" as="targetPoint" />
          </mxGeometry>
        </mxCell>
        <mxCell id="_mBccyXIj1Jl6ngUOovF-41" value="&lt;span style=&quot;color: rgb(51 , 51 , 51) ; font-family: &amp;#34;arial&amp;#34; , , sans-serif ; font-size: 14px ; text-indent: 28px ; background-color: rgb(255 , 255 , 255)&quot;&gt;Reflection APIs&lt;/span&gt;" style="rounded=0;whiteSpace=wrap;html=1;" vertex="1" parent="1">
          <mxGeometry x="920" y="630" width="120" height="60" as="geometry" />
        </mxCell>
        <mxCell id="_mBccyXIj1Jl6ngUOovF-42" value="通过reflenction Apis操作" style="endArrow=classic;html=1;exitX=0.45;exitY=0.982;exitDx=0;exitDy=0;exitPerimeter=0;entryX=0.5;entryY=0;entryDx=0;entryDy=0;" edge="1" parent="1" source="_mBccyXIj1Jl6ngUOovF-37" target="_mBccyXIj1Jl6ngUOovF-41">
          <mxGeometry width="50" height="50" relative="1" as="geometry">
            <mxPoint x="850" y="620" as="sourcePoint" />
            <mxPoint x="900" y="570" as="targetPoint" />
          </mxGeometry>
        </mxCell>
        <mxCell id="_mBccyXIj1Jl6ngUOovF-44" value="&lt;span style=&quot;color: rgb(51 , 51 , 51) ; text-indent: 28px ; background-color: rgb(255 , 255 , 255)&quot;&gt;&lt;font style=&quot;font-size: 12px&quot;&gt;java.lang包中的Class类&lt;/font&gt;&lt;/span&gt;" style="rounded=1;whiteSpace=wrap;html=1;" vertex="1" parent="1">
          <mxGeometry x="1090" y="580" width="120" height="60" as="geometry" />
        </mxCell>
        <mxCell id="_mBccyXIj1Jl6ngUOovF-46" value="&lt;span style=&quot;color: rgb(51 , 51 , 51) ; text-indent: 28px ; background-color: rgb(255 , 255 , 255)&quot;&gt;&lt;font style=&quot;font-size: 12px&quot;&gt;java.lang.reflect包中的Constructor类、Field类、Method类和Parameter类。&lt;/font&gt;&lt;/span&gt;" style="rounded=1;whiteSpace=wrap;html=1;" vertex="1" parent="1">
          <mxGeometry x="1090" y="680" width="120" height="60" as="geometry" />
        </mxCell>
        <mxCell id="_mBccyXIj1Jl6ngUOovF-47" value="" style="endArrow=classic;html=1;entryX=0;entryY=0.5;entryDx=0;entryDy=0;exitX=1;exitY=0.5;exitDx=0;exitDy=0;" edge="1" parent="1" source="_mBccyXIj1Jl6ngUOovF-41" target="_mBccyXIj1Jl6ngUOovF-44">
          <mxGeometry width="50" height="50" relative="1" as="geometry">
            <mxPoint x="1040" y="630" as="sourcePoint" />
            <mxPoint x="1090" y="580" as="targetPoint" />
          </mxGeometry>
        </mxCell>
        <mxCell id="_mBccyXIj1Jl6ngUOovF-48" value="" style="endArrow=classic;html=1;entryX=0;entryY=0.75;entryDx=0;entryDy=0;exitX=1;exitY=0.5;exitDx=0;exitDy=0;" edge="1" parent="1" source="_mBccyXIj1Jl6ngUOovF-41" target="_mBccyXIj1Jl6ngUOovF-46">
          <mxGeometry width="50" height="50" relative="1" as="geometry">
            <mxPoint x="1050" y="670" as="sourcePoint" />
            <mxPoint x="1100" y="620" as="targetPoint" />
          </mxGeometry>
        </mxCell>
        <mxCell id="_mBccyXIj1Jl6ngUOovF-49" value="Class是一特殊的类。&lt;br&gt;任何一个正在运行的类或者接口，都会自定创建该类。&lt;br&gt;&lt;span style=&quot;color: rgb(51 , 51 , 51) ; text-indent: 28px ; background-color: rgb(255 , 255 , 255)&quot;&gt;&lt;font style=&quot;font-size: 12px&quot;&gt;其对象是JVM在加载类时通过调用类加载器中的defineClass（）方法创建的&lt;/font&gt;&lt;/span&gt;" style="rounded=0;whiteSpace=wrap;html=1;" vertex="1" parent="1">
          <mxGeometry x="1320" y="450" width="220" height="100" as="geometry" />
        </mxCell>
        <mxCell id="_mBccyXIj1Jl6ngUOovF-50" value="是什么" style="endArrow=classic;html=1;exitX=1;exitY=0;exitDx=0;exitDy=0;entryX=0;entryY=0.25;entryDx=0;entryDy=0;" edge="1" parent="1" source="_mBccyXIj1Jl6ngUOovF-44" target="_mBccyXIj1Jl6ngUOovF-49">
          <mxGeometry width="50" height="50" relative="1" as="geometry">
            <mxPoint x="1040" y="630" as="sourcePoint" />
            <mxPoint x="1090" y="580" as="targetPoint" />
          </mxGeometry>
        </mxCell>
        <mxCell id="_mBccyXIj1Jl6ngUOovF-51" value="&lt;div&gt;//&amp;nbsp; &amp;nbsp; 1、使用Class类的静态方法forName（String className）&lt;/div&gt;&lt;div&gt;&amp;nbsp; &amp;nbsp; Class tips1 = Class.forName(&quot;com.ypp.flink.common.model.Tip&quot;);&lt;/div&gt;&lt;div&gt;//&amp;nbsp; &amp;nbsp; 2、用类名调用该类的class属性来获得该类对应的Class对象&lt;/div&gt;&lt;div&gt;Class tips2 = Tip.class;&lt;/div&gt;&lt;div&gt;// 3、用对象调用getClass（）方法来获得该类对应的Class对象&lt;/div&gt;&lt;div&gt;&amp;nbsp; &amp;nbsp; Tip tip = new Tip();&lt;/div&gt;&lt;div&gt;&amp;nbsp; &amp;nbsp; Class tips3 = tip.getClass();&lt;/div&gt;" style="rounded=0;whiteSpace=wrap;html=1;" vertex="1" parent="1">
          <mxGeometry x="1320" y="580" width="390" height="100" as="geometry" />
        </mxCell>
        <mxCell id="_mBccyXIj1Jl6ngUOovF-52" value="" style="endArrow=classic;html=1;exitX=1;exitY=0.5;exitDx=0;exitDy=0;" edge="1" parent="1" source="_mBccyXIj1Jl6ngUOovF-44">
          <mxGeometry width="50" height="50" relative="1" as="geometry">
            <mxPoint x="1240" y="580" as="sourcePoint" />
            <mxPoint x="1310" y="590" as="targetPoint" />
          </mxGeometry>
        </mxCell>
        <mxCell id="_mBccyXIj1Jl6ngUOovF-53" value="&lt;span style=&quot;font-size: 12px ; background-color: rgb(248 , 249 , 250)&quot;&gt;如何构造&lt;/span&gt;" style="edgeLabel;html=1;align=center;verticalAlign=middle;resizable=0;points=[];" vertex="1" connectable="0" parent="_mBccyXIj1Jl6ngUOovF-52">
          <mxGeometry x="-0.1154" y="1" relative="1" as="geometry">
            <mxPoint as="offset" />
          </mxGeometry>
        </mxCell>
      </root>
    </mxGraphModel>
  </diagram>
</mxfile>
